/* XPM */
static const char* ams_32_xpm[] = {
"32 32 17 1",
" 	c None",
".	c #4D4640",
"+	c #5F5750",
"@	c #805B30",
"#	c #825D38",
"$	c #886643",
"%	c #7B746E",
"&	c #A27724",
"*	c #94795C",
"=	c #8D7C69",
"-	c #9C8562",
";	c #9E8A76",
">	c #BA932D",
",	c #9F9589",
"'	c #9C9795",
")	c #B9A35D",
"!	c #DCAE15",
"@@@@@@@@@@@@@@@@@@@@@@@@@@@@@@@@",
"@@@@@@@@@@@@@@@@@@@@@$$$$$$$$$@@",
"@@@@@@@@@@@@@@@@@@@@@,''''''''*@",
"@@********@@@@@@@@@@@,.......%*@",
"@@,%%%%%%,@@@@@@@@#&&).......%*@",
"@@,+....+,@@@@@@#==!!!.......%*@",
"@@,+....+,@@@@$==*@@@,.......%*@",
"@@,+....+,@@$==*#@@@@,.......%*@",
"@@,+....+!!>=$@@@@@@@,.......%*@",
"@@,+....+)&&@@@@@@@@@,.......%*@",
"@@,+....+,@@@@@@@@#&&).......%*@",
"@@,+....+,@@@@@@$==>!!.......%*@",
"@@,+....+,@@#$===*#@@,.......%*@",
"@@,+....+>!>==*$@@@@@,+++++++,*@",
"@@,+....+>!>#@@@@@@@@*;;;;;;;;$@",
"@@,+....+,@@@@@@@@@@@@@@@@@@@@@@",
"@@,%%%%%%,@@@@@@@@@@@@@@@@@@@@@@",
"@@*;;;;;;*@@@@@@@@@@@@@@@@@@@@@@",
"@@@@@@@@@@@@@@@@@@@@@@@@@@@@@@@@",
"@@@@@@@@@@@@@@@@@@@@@@@@@@@@@@@@",
"@@###############@@@@@@@@*****@@",
"@@;,,,,,,,,,,,,,,$@@@@@@$,%%%'@@",
"@@,+............%*@@@@@@@;...'@@",
"@@,+............%*@@@@*>!>...'@@",
"@@,+............%*@@$==&>)...'@@",
"@@,+............->>-,=#@$,...'@@",
"@@,+............)!!-$@@@$,...'@@",
"@@,+............%-@@@@@@$,...'@@",
"@@,+............%*@@@@@@$,%%%'@@",
"@@,''''''''''''''*@@@@@@#*;;;;@@",
"@@@@@@@@@@@@@@@@@@@@@@@@@@@@@@@@",
"@@@@@@@@@@@@@@@@@@@@@@@@@@@@@@@@"};
