/* XPM */
static const char * ladspa_logo_xpm[] = {
"50 30 217 2",
"  	c None",
". 	c #004461",
"+ 	c #00425A",
"@ 	c #00455E",
"# 	c #004263",
"$ 	c #003B57",
"% 	c #004261",
"& 	c #004C67",
"* 	c #004D64",
"= 	c #00435E",
"- 	c #003D60",
"; 	c #004265",
"> 	c #004563",
", 	c #004061",
"' 	c #004066",
") 	c #004364",
"! 	c #004665",
"~ 	c #004660",
"{ 	c #00465C",
"] 	c #004860",
"^ 	c #004A63",
"/ 	c #00415B",
"( 	c #00425E",
"_ 	c #003D5C",
": 	c #003F5B",
"< 	c #004866",
"[ 	c #004969",
"} 	c #004565",
"| 	c #004764",
"1 	c #004664",
"2 	c #004765",
"3 	c #004562",
"4 	c #00445E",
"5 	c #004A67",
"6 	c #004B6E",
"7 	c #004252",
"8 	c #004258",
"9 	c #004161",
"0 	c #004162",
"a 	c #00415D",
"b 	c #003F5A",
"c 	c #003F59",
"d 	c #003F58",
"e 	c #003D56",
"f 	c #003C3E",
"g 	c #00434C",
"h 	c #003B45",
"i 	c #004840",
"j 	c #003E3C",
"k 	c #003844",
"l 	c #003B4C",
"m 	c #00434D",
"n 	c #00373B",
"o 	c #004049",
"p 	c #003E46",
"q 	c #004348",
"r 	c #004648",
"s 	c #004041",
"t 	c #00454B",
"u 	c #003A47",
"v 	c #004A4F",
"w 	c #003B46",
"x 	c #00444C",
"y 	c #00464C",
"z 	c #004453",
"A 	c #003D50",
"B 	c #004A47",
"C 	c #00404B",
"D 	c #00435F",
"E 	c #003E4C",
"F 	c #004844",
"G 	c #004748",
"H 	c #00424E",
"I 	c #00383C",
"J 	c #00484A",
"K 	c #00484F",
"L 	c #003C4E",
"M 	c #00394C",
"N 	c #004749",
"O 	c #004A48",
"P 	c #00414E",
"Q 	c #003F51",
"R 	c #003F50",
"S 	c #00444D",
"T 	c #004F55",
"U 	c #004B58",
"V 	c #003D4C",
"W 	c #004B49",
"X 	c #004B59",
"Y 	c #003A3F",
"Z 	c #005D65",
"` 	c #00454F",
" .	c #005051",
"..	c #004A4E",
"+.	c #004A50",
"@.	c #003A50",
"#.	c #004254",
"$.	c #004D66",
"%.	c #003644",
"&.	c #004B5A",
"*.	c #004153",
"=.	c #004553",
"-.	c #00464A",
";.	c #00424C",
">.	c #004951",
",.	c #004953",
"'.	c #004151",
").	c #003B43",
"!.	c #003F57",
"~.	c #003B4D",
"{.	c #00424B",
"].	c #004A4A",
"^.	c #003750",
"/.	c #003741",
"(.	c #00494A",
"_.	c #004259",
":.	c #004752",
"<.	c #003A43",
"[.	c #003E54",
"}.	c #00384C",
"|.	c #003243",
"1.	c #003D51",
"2.	c #004E54",
"3.	c #00404D",
"4.	c #003446",
"5.	c #003A44",
"6.	c #003C42",
"7.	c #00485E",
"8.	c #004157",
"9.	c #004255",
"0.	c #003F49",
"a.	c #004F59",
"b.	c #003D44",
"c.	c #004F53",
"d.	c #004147",
"e.	c #004051",
"f.	c #00464B",
"g.	c #003A57",
"h.	c #004D4D",
"i.	c #00435B",
"j.	c #003A4E",
"k.	c #004C54",
"l.	c #004855",
"m.	c #004751",
"n.	c #003947",
"o.	c #00465A",
"p.	c #003F4F",
"q.	c #003E4A",
"r.	c #003C51",
"s.	c #004F4F",
"t.	c #004654",
"u.	c #004A52",
"v.	c #004A55",
"w.	c #004A53",
"x.	c #00444A",
"y.	c #00465B",
"z.	c #004548",
"A.	c #003E41",
"B.	c #003E4D",
"C.	c #00434B",
"D.	c #004055",
"E.	c #004655",
"F.	c #004C57",
"G.	c #003B48",
"H.	c #004B5C",
"I.	c #003F4C",
"J.	c #003E3E",
"K.	c #003643",
"L.	c #004346",
"M.	c #004443",
"N.	c #00454A",
"O.	c #00434F",
"P.	c #003B42",
"Q.	c #00354A",
"R.	c #003044",
"S.	c #004448",
"T.	c #003D46",
"U.	c #003946",
"V.	c #003C46",
"W.	c #00474E",
"X.	c #004447",
"Y.	c #003744",
"Z.	c #00495C",
"`.	c #004242",
" +	c #004048",
".+	c #004251",
"++	c #00414C",
"@+	c #003A5D",
"#+	c #00445B",
"$+	c #004A5D",
"%+	c #00455F",
"&+	c #00475C",
"*+	c #00475B",
"=+	c #003B5D",
"-+	c #00415F",
";+	c #003E5B",
">+	c #004659",
",+	c #00425F",
"'+	c #004A62",
")+	c #004B67",
"!+	c #004966",
"~+	c #003C59",
"{+	c #003D58",
"]+	c #004859",
"^+	c #00445A",
"/+	c #00455D",
"(+	c #00465D",
"_+	c #004463",
":+	c #004358",
"<+	c #004155",
"[+	c #003B56",
"}+	c #004464",
"|+	c #003E5C",
"1+	c #003758",
"2+	c #003958",
"3+	c #003C5F",
"4+	c #003E5D",
"                                                                                                    ",
"                                              . + @ #                                               ",
"                                            $ % & * = - ;                                           ",
"                                      > , ' ) ! ~ { ] ^ ~ / (                                       ",
"                                  _ : < [ } ! | 1 > | 2 3 4 = 5 6                                   ",
"                                7 7 8 9 0 9 9 9 9 9 9 9 a b b c d e                                 ",
"                                                                                                    ",
"                                                                                                    ",
"                                                                                                    ",
"                                                                                                    ",
"                                                                                                    ",
"      f                 g h         i j k l m         n o p q       r s t u v           w           ",
"      x y               z A         B C   D E F     G H     I J     K L   M N O       P Q R         ",
"      S y             l T U V       W X       Q     Y Z             `        ...      l +.V         ",
"      S t             @.#.$.%.      W &.      *.=.  h -.;.          >.      ,.'.    ).!.  ~.        ",
"      {.].            ^.    /.      (._.      '.:.    <.[.}.|.1.    2.x 3.4.5.      6.7.  8.9.      ",
"      0.y           a.A b.c.d.e.    f.g.      =.h.          i.j.    k.l.            g m.n.o.p.      ",
"      q.r.          s.t.{.u.v.w.    x.y.    R z.    A.        B.    C.            D.E.F.G.H.l       ",
"      I.@.d.J.K.    L.        M.    N.O.P.Q.R.S.    T.U.l P V.W.    X.            Y.Z.      `. +    ",
"                                                        .+++                                        ",
"                                                                                                    ",
"                                                                                                    ",
"                                                                                                    ",
"                                                                                                    ",
"                              @+#+$+%+, D &+y.y.*+&+&+&+~ > , =+- -+;+                              ",
"                                  >+!.,+| '+'+'+'+'+'+'+)+!+( ~+{+                                  ",
"                                      ]+^+%+/+y.(+~ 3 _+%+:+<+                                      ",
"                                          , [+d 3 }+|+1+2+                                          ",
"                                              3+4+{+^.                                              ",
"                                                                                                    "};
